<svg 
 xmlns="http://www.w3.org/2000/svg"
 xmlns:xlink="http://www.w3.org/1999/xlink"
 width="31px" height="32px">
<path fill-rule="evenodd"  fill="rgb(24, 92, 45)"
 d="M30.584,14.660 L16.481,0.414 C16.219,0.150 15.864,0.001 15.495,0.001 C15.125,0.001 14.769,0.150 14.508,0.414 L0.405,14.660 C-0.140,15.210 -0.140,16.103 0.405,16.653 C0.951,17.203 1.834,17.203 2.379,16.653 L15.495,3.404 L28.610,16.653 C28.882,16.928 29.240,17.066 29.597,17.066 C29.953,17.066 30.311,16.928 30.584,16.653 C31.128,16.103 31.128,15.210 30.584,14.660 ZM25.209,15.603 C24.439,15.603 23.814,16.234 23.814,17.012 L23.814,29.180 L20.245,29.180 L20.245,20.618 C20.245,19.839 19.620,19.208 18.849,19.208 L12.139,19.208 C11.368,19.208 10.744,19.839 10.744,20.618 L10.744,29.180 L7.175,29.180 L7.175,17.013 C7.175,16.234 6.551,15.603 5.780,15.603 C5.009,15.603 4.384,16.235 4.384,17.013 L4.384,30.590 C4.384,31.368 5.009,32.000 5.780,32.000 L12.139,32.000 C12.910,32.000 13.535,31.368 13.535,30.590 L13.535,22.028 L17.454,22.028 L17.454,30.590 C17.454,31.368 18.078,32.000 18.849,32.000 L25.209,32.000 C25.980,32.000 26.605,31.368 26.605,30.590 L26.605,17.013 C26.605,16.234 25.980,15.603 25.209,15.603 Z"/>
</svg>